<svg xmlns="http://www.w3.org/2000/svg" width="91.778" height="91.779" viewBox="0 0 91.778 91.779">
  <g id="Group_242" data-name="Group 242" transform="translate(-515.844 -73.882)">
    <path id="Path_9215" data-name="Path 9215" d="M517.637,74.779a.9.9,0,1,1-.9-.9A.9.9,0,0,1,517.637,74.779Z" fill="#bf9650"/>
    <path id="Path_9216" data-name="Path 9216" d="M523.852,74.779a.9.9,0,1,1-.9-.9A.9.9,0,0,1,523.852,74.779Z" transform="translate(1.284)" fill="#bf9650"/>
    <path id="Path_9217" data-name="Path 9217" d="M530.066,74.779a.9.9,0,1,1-.9-.9A.9.9,0,0,1,530.066,74.779Z" transform="translate(2.569)" fill="#bf9650"/>
    <path id="Path_9218" data-name="Path 9218" d="M536.281,74.779a.9.9,0,1,1-.9-.9A.9.9,0,0,1,536.281,74.779Z" transform="translate(3.853)" fill="#bf9650"/>
    <path id="Path_9219" data-name="Path 9219" d="M542.5,74.779a.9.9,0,1,1-.9-.9A.9.9,0,0,1,542.5,74.779Z" transform="translate(5.137)" fill="#bf9650"/>
    <path id="Path_9220" data-name="Path 9220" d="M548.71,74.779a.9.9,0,1,1-.9-.9A.9.9,0,0,1,548.71,74.779Z" transform="translate(6.421)" fill="#bf9650"/>
    <circle id="Ellipse_22" data-name="Ellipse 22" cx="0.896" cy="0.896" r="0.896" transform="translate(560.837 73.882)" fill="#bf9650"/>
    <path id="Path_9221" data-name="Path 9221" d="M517.637,80.994a.9.9,0,1,1-.9-.9A.9.9,0,0,1,517.637,80.994Z" transform="translate(0 1.284)" fill="#bf9650"/>
    <path id="Path_9222" data-name="Path 9222" d="M523.852,80.994a.9.9,0,1,1-.9-.9A.9.9,0,0,1,523.852,80.994Z" transform="translate(1.284 1.284)" fill="#bf9650"/>
    <path id="Path_9223" data-name="Path 9223" d="M530.066,80.994a.9.9,0,1,1-.9-.9A.9.9,0,0,1,530.066,80.994Z" transform="translate(2.569 1.284)" fill="#bf9650"/>
    <path id="Path_9224" data-name="Path 9224" d="M536.281,80.994a.9.9,0,1,1-.9-.9A.9.9,0,0,1,536.281,80.994Z" transform="translate(3.853 1.284)" fill="#bf9650"/>
    <path id="Path_9225" data-name="Path 9225" d="M542.5,80.994a.9.9,0,1,1-.9-.9A.9.9,0,0,1,542.5,80.994Z" transform="translate(5.137 1.284)" fill="#bf9650"/>
    <path id="Path_9226" data-name="Path 9226" d="M548.71,80.994a.9.9,0,1,1-.9-.9A.9.9,0,0,1,548.71,80.994Z" transform="translate(6.421 1.284)" fill="#bf9650"/>
    <path id="Path_9227" data-name="Path 9227" d="M554.924,80.994a.9.9,0,1,1-.9-.9A.9.9,0,0,1,554.924,80.994Z" transform="translate(7.705 1.284)" fill="#bf9650"/>
    <path id="Path_9228" data-name="Path 9228" d="M517.637,87.208a.9.9,0,1,1-.9-.9A.9.9,0,0,1,517.637,87.208Z" transform="translate(0 2.568)" fill="#bf9650"/>
    <path id="Path_9229" data-name="Path 9229" d="M523.852,87.208a.9.9,0,1,1-.9-.9A.9.9,0,0,1,523.852,87.208Z" transform="translate(1.284 2.568)" fill="#bf9650"/>
    <path id="Path_9230" data-name="Path 9230" d="M530.066,87.208a.9.9,0,1,1-.9-.9A.9.9,0,0,1,530.066,87.208Z" transform="translate(2.569 2.568)" fill="#bf9650"/>
    <path id="Path_9231" data-name="Path 9231" d="M536.281,87.208a.9.9,0,1,1-.9-.9A.9.9,0,0,1,536.281,87.208Z" transform="translate(3.853 2.568)" fill="#bf9650"/>
    <path id="Path_9232" data-name="Path 9232" d="M542.5,87.208a.9.9,0,1,1-.9-.9A.9.9,0,0,1,542.5,87.208Z" transform="translate(5.137 2.568)" fill="#bf9650"/>
    <path id="Path_9233" data-name="Path 9233" d="M548.71,87.208a.9.9,0,1,1-.9-.9A.9.9,0,0,1,548.71,87.208Z" transform="translate(6.421 2.568)" fill="#bf9650"/>
    <circle id="Ellipse_23" data-name="Ellipse 23" cx="0.896" cy="0.896" r="0.896" transform="translate(560.837 88.88)" fill="#bf9650"/>
    <path id="Path_9234" data-name="Path 9234" d="M517.637,93.423a.9.9,0,1,1-.9-.9A.9.9,0,0,1,517.637,93.423Z" transform="translate(0 3.853)" fill="#bf9650"/>
    <path id="Path_9235" data-name="Path 9235" d="M523.852,93.423a.9.9,0,1,1-.9-.9A.9.9,0,0,1,523.852,93.423Z" transform="translate(1.284 3.853)" fill="#bf9650"/>
    <path id="Path_9236" data-name="Path 9236" d="M530.066,93.423a.9.9,0,1,1-.9-.9A.9.9,0,0,1,530.066,93.423Z" transform="translate(2.569 3.853)" fill="#bf9650"/>
    <path id="Path_9237" data-name="Path 9237" d="M536.281,93.423a.9.9,0,1,1-.9-.9A.9.9,0,0,1,536.281,93.423Z" transform="translate(3.853 3.853)" fill="#bf9650"/>
    <path id="Path_9238" data-name="Path 9238" d="M542.5,93.423a.9.9,0,1,1-.9-.9A.9.9,0,0,1,542.5,93.423Z" transform="translate(5.137 3.853)" fill="#bf9650"/>
    <path id="Path_9239" data-name="Path 9239" d="M548.71,93.423a.9.9,0,1,1-.9-.9A.9.9,0,0,1,548.71,93.423Z" transform="translate(6.421 3.853)" fill="#bf9650"/>
    <path id="Path_9240" data-name="Path 9240" d="M554.924,93.423a.9.9,0,1,1-.9-.9A.9.9,0,0,1,554.924,93.423Z" transform="translate(7.705 3.853)" fill="#bf9650"/>
    <path id="Path_9241" data-name="Path 9241" d="M517.637,99.637a.9.9,0,1,1-.9-.9A.9.9,0,0,1,517.637,99.637Z" transform="translate(0 5.137)" fill="#bf9650"/>
    <path id="Path_9242" data-name="Path 9242" d="M523.852,99.637a.9.9,0,1,1-.9-.9A.9.9,0,0,1,523.852,99.637Z" transform="translate(1.284 5.137)" fill="#bf9650"/>
    <path id="Path_9243" data-name="Path 9243" d="M530.066,99.637a.9.9,0,1,1-.9-.9A.9.9,0,0,1,530.066,99.637Z" transform="translate(2.569 5.137)" fill="#bf9650"/>
    <path id="Path_9244" data-name="Path 9244" d="M536.281,99.637a.9.9,0,1,1-.9-.9A.9.9,0,0,1,536.281,99.637Z" transform="translate(3.853 5.137)" fill="#bf9650"/>
    <path id="Path_9245" data-name="Path 9245" d="M542.5,99.637a.9.9,0,1,1-.9-.9A.9.9,0,0,1,542.5,99.637Z" transform="translate(5.137 5.137)" fill="#bf9650"/>
    <path id="Path_9246" data-name="Path 9246" d="M548.71,99.637a.9.9,0,1,1-.9-.9A.9.9,0,0,1,548.71,99.637Z" transform="translate(6.421 5.137)" fill="#bf9650"/>
    <path id="Path_9247" data-name="Path 9247" d="M554.924,99.637a.9.9,0,1,1-.9-.9A.9.9,0,0,1,554.924,99.637Z" transform="translate(7.705 5.137)" fill="#bf9650"/>
    <path id="Path_9248" data-name="Path 9248" d="M517.637,105.852a.9.9,0,1,1-.9-.9A.9.9,0,0,1,517.637,105.852Z" transform="translate(0 6.421)" fill="#bf9650"/>
    <path id="Path_9249" data-name="Path 9249" d="M523.852,105.852a.9.9,0,1,1-.9-.9A.9.9,0,0,1,523.852,105.852Z" transform="translate(1.284 6.421)" fill="#bf9650"/>
    <path id="Path_9250" data-name="Path 9250" d="M530.066,105.852a.9.9,0,1,1-.9-.9A.9.9,0,0,1,530.066,105.852Z" transform="translate(2.569 6.421)" fill="#bf9650"/>
    <path id="Path_9251" data-name="Path 9251" d="M536.281,105.852a.9.9,0,1,1-.9-.9A.9.9,0,0,1,536.281,105.852Z" transform="translate(3.853 6.421)" fill="#bf9650"/>
    <path id="Path_9252" data-name="Path 9252" d="M542.5,105.852a.9.9,0,1,1-.9-.9A.9.9,0,0,1,542.5,105.852Z" transform="translate(5.137 6.421)" fill="#bf9650"/>
    <path id="Path_9253" data-name="Path 9253" d="M548.71,105.852a.9.9,0,1,1-.9-.9A.9.9,0,0,1,548.71,105.852Z" transform="translate(6.421 6.421)" fill="#bf9650"/>
    <path id="Path_9254" data-name="Path 9254" d="M554.924,105.852a.9.9,0,1,1-.9-.9A.9.9,0,0,1,554.924,105.852Z" transform="translate(7.705 6.421)" fill="#bf9650"/>
    <path id="Path_9255" data-name="Path 9255" d="M517.637,112.066a.9.9,0,1,1-.9-.9A.9.9,0,0,1,517.637,112.066Z" transform="translate(0 7.705)" fill="#bf9650"/>
    <path id="Path_9256" data-name="Path 9256" d="M523.852,112.066a.9.9,0,1,1-.9-.9A.9.9,0,0,1,523.852,112.066Z" transform="translate(1.284 7.705)" fill="#bf9650"/>
    <path id="Path_9257" data-name="Path 9257" d="M530.066,112.066a.9.9,0,1,1-.9-.9A.9.9,0,0,1,530.066,112.066Z" transform="translate(2.569 7.705)" fill="#bf9650"/>
    <path id="Path_9258" data-name="Path 9258" d="M536.281,112.066a.9.9,0,1,1-.9-.9A.9.9,0,0,1,536.281,112.066Z" transform="translate(3.853 7.705)" fill="#bf9650"/>
    <path id="Path_9259" data-name="Path 9259" d="M542.5,112.066a.9.9,0,1,1-.9-.9A.9.9,0,0,1,542.5,112.066Z" transform="translate(5.137 7.705)" fill="#bf9650"/>
    <path id="Path_9260" data-name="Path 9260" d="M548.71,112.066a.9.9,0,1,1-.9-.9A.9.9,0,0,1,548.71,112.066Z" transform="translate(6.421 7.705)" fill="#bf9650"/>
    <path id="Path_9261" data-name="Path 9261" d="M554.924,112.066a.9.9,0,1,1-.9-.9A.9.9,0,0,1,554.924,112.066Z" transform="translate(7.705 7.705)" fill="#bf9650"/>
    <path id="Path_9262" data-name="Path 9262" d="M561.139,74.779a.9.9,0,1,1-.9-.9A.9.9,0,0,1,561.139,74.779Z" transform="translate(8.989)" fill="#bf9650"/>
    <path id="Path_9263" data-name="Path 9263" d="M567.353,74.779a.9.9,0,1,1-.9-.9A.9.9,0,0,1,567.353,74.779Z" transform="translate(10.274)" fill="#bf9650"/>
    <path id="Path_9264" data-name="Path 9264" d="M573.568,74.779a.9.9,0,1,1-.9-.9A.9.9,0,0,1,573.568,74.779Z" transform="translate(11.558)" fill="#bf9650"/>
    <path id="Path_9265" data-name="Path 9265" d="M579.783,74.779a.9.9,0,1,1-.9-.9A.9.9,0,0,1,579.783,74.779Z" transform="translate(12.842)" fill="#bf9650"/>
    <path id="Path_9266" data-name="Path 9266" d="M586,74.779a.9.9,0,1,1-.9-.9A.9.9,0,0,1,586,74.779Z" transform="translate(14.126)" fill="#bf9650"/>
    <path id="Path_9267" data-name="Path 9267" d="M592.212,74.779a.9.9,0,1,1-.9-.9A.9.9,0,0,1,592.212,74.779Z" transform="translate(15.41)" fill="#bf9650"/>
    <path id="Path_9268" data-name="Path 9268" d="M561.139,80.994a.9.9,0,1,1-.9-.9A.9.9,0,0,1,561.139,80.994Z" transform="translate(8.989 1.284)" fill="#bf9650"/>
    <path id="Path_9269" data-name="Path 9269" d="M567.353,80.994a.9.9,0,1,1-.9-.9A.9.9,0,0,1,567.353,80.994Z" transform="translate(10.274 1.284)" fill="#bf9650"/>
    <path id="Path_9270" data-name="Path 9270" d="M573.568,80.994a.9.9,0,1,1-.9-.9A.9.9,0,0,1,573.568,80.994Z" transform="translate(11.558 1.284)" fill="#bf9650"/>
    <path id="Path_9271" data-name="Path 9271" d="M579.783,80.994a.9.9,0,1,1-.9-.9A.9.9,0,0,1,579.783,80.994Z" transform="translate(12.842 1.284)" fill="#bf9650"/>
    <path id="Path_9272" data-name="Path 9272" d="M586,80.994a.9.9,0,1,1-.9-.9A.9.9,0,0,1,586,80.994Z" transform="translate(14.126 1.284)" fill="#bf9650"/>
    <path id="Path_9273" data-name="Path 9273" d="M592.212,80.994a.9.9,0,1,1-.9-.9A.9.9,0,0,1,592.212,80.994Z" transform="translate(15.41 1.284)" fill="#bf9650"/>
    <path id="Path_9274" data-name="Path 9274" d="M561.139,87.208a.9.9,0,1,1-.9-.9A.9.9,0,0,1,561.139,87.208Z" transform="translate(8.989 2.568)" fill="#bf9650"/>
    <path id="Path_9275" data-name="Path 9275" d="M567.353,87.208a.9.9,0,1,1-.9-.9A.9.9,0,0,1,567.353,87.208Z" transform="translate(10.274 2.568)" fill="#bf9650"/>
    <path id="Path_9276" data-name="Path 9276" d="M573.568,87.208a.9.9,0,1,1-.9-.9A.9.9,0,0,1,573.568,87.208Z" transform="translate(11.558 2.568)" fill="#bf9650"/>
    <path id="Path_9277" data-name="Path 9277" d="M579.783,87.208a.9.9,0,1,1-.9-.9A.9.9,0,0,1,579.783,87.208Z" transform="translate(12.842 2.568)" fill="#bf9650"/>
    <path id="Path_9278" data-name="Path 9278" d="M586,87.208a.9.9,0,1,1-.9-.9A.9.9,0,0,1,586,87.208Z" transform="translate(14.126 2.568)" fill="#bf9650"/>
    <path id="Path_9279" data-name="Path 9279" d="M592.212,87.208a.9.9,0,1,1-.9-.9A.9.9,0,0,1,592.212,87.208Z" transform="translate(15.41 2.568)" fill="#bf9650"/>
    <path id="Path_9280" data-name="Path 9280" d="M561.139,93.423a.9.9,0,1,1-.9-.9A.9.9,0,0,1,561.139,93.423Z" transform="translate(8.989 3.853)" fill="#bf9650"/>
    <path id="Path_9281" data-name="Path 9281" d="M567.353,93.423a.9.9,0,1,1-.9-.9A.9.9,0,0,1,567.353,93.423Z" transform="translate(10.274 3.853)" fill="#bf9650"/>
    <path id="Path_9282" data-name="Path 9282" d="M573.568,93.423a.9.9,0,1,1-.9-.9A.9.9,0,0,1,573.568,93.423Z" transform="translate(11.558 3.853)" fill="#bf9650"/>
    <path id="Path_9283" data-name="Path 9283" d="M579.783,93.423a.9.9,0,1,1-.9-.9A.9.9,0,0,1,579.783,93.423Z" transform="translate(12.842 3.853)" fill="#bf9650"/>
    <path id="Path_9284" data-name="Path 9284" d="M586,93.423a.9.9,0,1,1-.9-.9A.9.9,0,0,1,586,93.423Z" transform="translate(14.126 3.853)" fill="#bf9650"/>
    <path id="Path_9285" data-name="Path 9285" d="M592.212,93.423a.9.9,0,1,1-.9-.9A.9.9,0,0,1,592.212,93.423Z" transform="translate(15.41 3.853)" fill="#bf9650"/>
    <path id="Path_9286" data-name="Path 9286" d="M561.139,99.637a.9.9,0,1,1-.9-.9A.9.9,0,0,1,561.139,99.637Z" transform="translate(8.989 5.137)" fill="#bf9650"/>
    <path id="Path_9287" data-name="Path 9287" d="M567.353,99.637a.9.9,0,1,1-.9-.9A.9.9,0,0,1,567.353,99.637Z" transform="translate(10.274 5.137)" fill="#bf9650"/>
    <path id="Path_9288" data-name="Path 9288" d="M573.568,99.637a.9.9,0,1,1-.9-.9A.9.9,0,0,1,573.568,99.637Z" transform="translate(11.558 5.137)" fill="#bf9650"/>
    <path id="Path_9289" data-name="Path 9289" d="M579.783,99.637a.9.9,0,1,1-.9-.9A.9.9,0,0,1,579.783,99.637Z" transform="translate(12.842 5.137)" fill="#bf9650"/>
    <path id="Path_9290" data-name="Path 9290" d="M586,99.637a.9.9,0,1,1-.9-.9A.9.9,0,0,1,586,99.637Z" transform="translate(14.126 5.137)" fill="#bf9650"/>
    <path id="Path_9291" data-name="Path 9291" d="M592.212,99.637a.9.9,0,1,1-.9-.9A.9.9,0,0,1,592.212,99.637Z" transform="translate(15.41 5.137)" fill="#bf9650"/>
    <path id="Path_9292" data-name="Path 9292" d="M561.139,105.852a.9.9,0,1,1-.9-.9A.9.9,0,0,1,561.139,105.852Z" transform="translate(8.989 6.421)" fill="#bf9650"/>
    <path id="Path_9293" data-name="Path 9293" d="M567.353,105.852a.9.9,0,1,1-.9-.9A.9.9,0,0,1,567.353,105.852Z" transform="translate(10.274 6.421)" fill="#bf9650"/>
    <path id="Path_9294" data-name="Path 9294" d="M573.568,105.852a.9.9,0,1,1-.9-.9A.9.9,0,0,1,573.568,105.852Z" transform="translate(11.558 6.421)" fill="#bf9650"/>
    <path id="Path_9295" data-name="Path 9295" d="M579.783,105.852a.9.9,0,1,1-.9-.9A.9.9,0,0,1,579.783,105.852Z" transform="translate(12.842 6.421)" fill="#bf9650"/>
    <path id="Path_9296" data-name="Path 9296" d="M586,105.852a.9.9,0,1,1-.9-.9A.9.9,0,0,1,586,105.852Z" transform="translate(14.126 6.421)" fill="#bf9650"/>
    <path id="Path_9297" data-name="Path 9297" d="M592.212,105.852a.9.9,0,1,1-.9-.9A.9.9,0,0,1,592.212,105.852Z" transform="translate(15.41 6.421)" fill="#bf9650"/>
    <path id="Path_9298" data-name="Path 9298" d="M561.139,112.066a.9.9,0,1,1-.9-.9A.9.9,0,0,1,561.139,112.066Z" transform="translate(8.989 7.705)" fill="#bf9650"/>
    <path id="Path_9299" data-name="Path 9299" d="M567.353,112.066a.9.9,0,1,1-.9-.9A.9.9,0,0,1,567.353,112.066Z" transform="translate(10.274 7.705)" fill="#bf9650"/>
    <path id="Path_9300" data-name="Path 9300" d="M573.568,112.066a.9.9,0,1,1-.9-.9A.9.9,0,0,1,573.568,112.066Z" transform="translate(11.558 7.705)" fill="#bf9650"/>
    <path id="Path_9301" data-name="Path 9301" d="M579.783,112.066a.9.9,0,1,1-.9-.9A.9.9,0,0,1,579.783,112.066Z" transform="translate(12.842 7.705)" fill="#bf9650"/>
    <path id="Path_9302" data-name="Path 9302" d="M586,112.066a.9.9,0,1,1-.9-.9A.9.9,0,0,1,586,112.066Z" transform="translate(14.126 7.705)" fill="#bf9650"/>
    <path id="Path_9303" data-name="Path 9303" d="M592.212,112.066a.9.9,0,1,1-.9-.9A.9.9,0,0,1,592.212,112.066Z" transform="translate(15.41 7.705)" fill="#bf9650"/>
    <path id="Path_9304" data-name="Path 9304" d="M517.637,118.281a.9.9,0,1,1-.9-.9A.9.9,0,0,1,517.637,118.281Z" transform="translate(0 8.989)" fill="#bf9650"/>
    <path id="Path_9305" data-name="Path 9305" d="M523.852,118.281a.9.9,0,1,1-.9-.9A.9.9,0,0,1,523.852,118.281Z" transform="translate(1.284 8.989)" fill="#bf9650"/>
    <path id="Path_9306" data-name="Path 9306" d="M530.066,118.281a.9.9,0,1,1-.9-.9A.9.9,0,0,1,530.066,118.281Z" transform="translate(2.569 8.989)" fill="#bf9650"/>
    <path id="Path_9307" data-name="Path 9307" d="M536.281,118.281a.9.9,0,1,1-.9-.9A.9.9,0,0,1,536.281,118.281Z" transform="translate(3.853 8.989)" fill="#bf9650"/>
    <path id="Path_9308" data-name="Path 9308" d="M542.5,118.281a.9.9,0,1,1-.9-.9A.9.9,0,0,1,542.5,118.281Z" transform="translate(5.137 8.989)" fill="#bf9650"/>
    <path id="Path_9309" data-name="Path 9309" d="M548.71,118.281a.9.9,0,1,1-.9-.9A.9.9,0,0,1,548.71,118.281Z" transform="translate(6.421 8.989)" fill="#bf9650"/>
    <circle id="Ellipse_24" data-name="Ellipse 24" cx="0.896" cy="0.896" r="0.896" transform="translate(560.837 126.373)" fill="#bf9650"/>
    <path id="Path_9310" data-name="Path 9310" d="M517.637,124.494a.9.9,0,1,1-.9-.9A.9.9,0,0,1,517.637,124.494Z" transform="translate(0 10.274)" fill="#bf9650"/>
    <path id="Path_9311" data-name="Path 9311" d="M523.852,124.494a.9.9,0,1,1-.9-.9A.9.9,0,0,1,523.852,124.494Z" transform="translate(1.284 10.274)" fill="#bf9650"/>
    <path id="Path_9312" data-name="Path 9312" d="M530.066,124.494a.9.9,0,1,1-.9-.9A.9.9,0,0,1,530.066,124.494Z" transform="translate(2.569 10.274)" fill="#bf9650"/>
    <path id="Path_9313" data-name="Path 9313" d="M536.281,124.494a.9.9,0,1,1-.9-.9A.9.9,0,0,1,536.281,124.494Z" transform="translate(3.853 10.274)" fill="#bf9650"/>
    <path id="Path_9314" data-name="Path 9314" d="M542.5,124.494a.9.9,0,1,1-.9-.9A.9.9,0,0,1,542.5,124.494Z" transform="translate(5.137 10.274)" fill="#bf9650"/>
    <path id="Path_9315" data-name="Path 9315" d="M548.71,124.494a.9.9,0,1,1-.9-.9A.9.9,0,0,1,548.71,124.494Z" transform="translate(6.421 10.274)" fill="#bf9650"/>
    <circle id="Ellipse_25" data-name="Ellipse 25" cx="0.896" cy="0.896" r="0.896" transform="translate(560.837 133.872)" fill="#bf9650"/>
    <path id="Path_9316" data-name="Path 9316" d="M517.637,130.71a.9.9,0,1,1-.9-.9A.9.9,0,0,1,517.637,130.71Z" transform="translate(0 11.558)" fill="#bf9650"/>
    <path id="Path_9317" data-name="Path 9317" d="M523.852,130.71a.9.9,0,1,1-.9-.9A.9.9,0,0,1,523.852,130.71Z" transform="translate(1.284 11.558)" fill="#bf9650"/>
    <path id="Path_9318" data-name="Path 9318" d="M530.066,130.71a.9.9,0,1,1-.9-.9A.9.9,0,0,1,530.066,130.71Z" transform="translate(2.569 11.558)" fill="#bf9650"/>
    <path id="Path_9319" data-name="Path 9319" d="M536.281,130.71a.9.9,0,1,1-.9-.9A.9.9,0,0,1,536.281,130.71Z" transform="translate(3.853 11.558)" fill="#bf9650"/>
    <path id="Path_9320" data-name="Path 9320" d="M542.5,130.71a.9.9,0,1,1-.9-.9A.9.9,0,0,1,542.5,130.71Z" transform="translate(5.137 11.558)" fill="#bf9650"/>
    <path id="Path_9321" data-name="Path 9321" d="M548.71,130.71a.9.9,0,1,1-.9-.9A.9.9,0,0,1,548.71,130.71Z" transform="translate(6.421 11.558)" fill="#bf9650"/>
    <path id="Path_9322" data-name="Path 9322" d="M554.924,130.71a.9.9,0,1,1-.9-.9A.9.9,0,0,1,554.924,130.71Z" transform="translate(7.705 11.558)" fill="#bf9650"/>
    <path id="Path_9323" data-name="Path 9323" d="M517.637,136.923a.9.9,0,1,1-.9-.9A.9.9,0,0,1,517.637,136.923Z" transform="translate(0 12.842)" fill="#bf9650"/>
    <path id="Path_9324" data-name="Path 9324" d="M523.852,136.923a.9.9,0,1,1-.9-.9A.9.9,0,0,1,523.852,136.923Z" transform="translate(1.284 12.842)" fill="#bf9650"/>
    <path id="Path_9325" data-name="Path 9325" d="M530.066,136.923a.9.9,0,1,1-.9-.9A.9.9,0,0,1,530.066,136.923Z" transform="translate(2.569 12.842)" fill="#bf9650"/>
    <path id="Path_9326" data-name="Path 9326" d="M536.281,136.923a.9.9,0,1,1-.9-.9A.9.9,0,0,1,536.281,136.923Z" transform="translate(3.853 12.842)" fill="#bf9650"/>
    <path id="Path_9327" data-name="Path 9327" d="M542.5,136.923a.9.9,0,1,1-.9-.9A.9.9,0,0,1,542.5,136.923Z" transform="translate(5.137 12.842)" fill="#bf9650"/>
    <path id="Path_9328" data-name="Path 9328" d="M548.71,136.923a.9.9,0,1,1-.9-.9A.9.9,0,0,1,548.71,136.923Z" transform="translate(6.421 12.842)" fill="#bf9650"/>
    <path id="Path_9329" data-name="Path 9329" d="M554.924,136.923a.9.9,0,1,1-.9-.9A.9.9,0,0,1,554.924,136.923Z" transform="translate(7.705 12.842)" fill="#bf9650"/>
    <path id="Path_9330" data-name="Path 9330" d="M517.637,143.139a.9.9,0,1,1-.9-.9A.9.9,0,0,1,517.637,143.139Z" transform="translate(0 14.126)" fill="#bf9650"/>
    <path id="Path_9331" data-name="Path 9331" d="M523.852,143.139a.9.9,0,1,1-.9-.9A.9.9,0,0,1,523.852,143.139Z" transform="translate(1.284 14.126)" fill="#bf9650"/>
    <path id="Path_9332" data-name="Path 9332" d="M530.066,143.139a.9.9,0,1,1-.9-.9A.9.9,0,0,1,530.066,143.139Z" transform="translate(2.569 14.126)" fill="#bf9650"/>
    <path id="Path_9333" data-name="Path 9333" d="M536.281,143.139a.9.9,0,1,1-.9-.9A.9.9,0,0,1,536.281,143.139Z" transform="translate(3.853 14.126)" fill="#bf9650"/>
    <path id="Path_9334" data-name="Path 9334" d="M542.5,143.139a.9.9,0,1,1-.9-.9A.9.9,0,0,1,542.5,143.139Z" transform="translate(5.137 14.126)" fill="#bf9650"/>
    <path id="Path_9335" data-name="Path 9335" d="M548.71,143.139a.9.9,0,1,1-.9-.9A.9.9,0,0,1,548.71,143.139Z" transform="translate(6.421 14.126)" fill="#bf9650"/>
    <path id="Path_9336" data-name="Path 9336" d="M554.924,143.139a.9.9,0,1,1-.9-.9A.9.9,0,0,1,554.924,143.139Z" transform="translate(7.705 14.126)" fill="#bf9650"/>
    <path id="Path_9337" data-name="Path 9337" d="M517.637,149.354a.9.9,0,1,1-.9-.9A.9.9,0,0,1,517.637,149.354Z" transform="translate(0 15.41)" fill="#bf9650"/>
    <path id="Path_9338" data-name="Path 9338" d="M523.852,149.354a.9.9,0,1,1-.9-.9A.9.9,0,0,1,523.852,149.354Z" transform="translate(1.284 15.41)" fill="#bf9650"/>
    <path id="Path_9339" data-name="Path 9339" d="M530.066,149.354a.9.9,0,1,1-.9-.9A.9.9,0,0,1,530.066,149.354Z" transform="translate(2.569 15.41)" fill="#bf9650"/>
    <path id="Path_9340" data-name="Path 9340" d="M536.281,149.354a.9.9,0,1,1-.9-.9A.9.9,0,0,1,536.281,149.354Z" transform="translate(3.853 15.41)" fill="#bf9650"/>
    <path id="Path_9341" data-name="Path 9341" d="M542.5,149.354a.9.9,0,1,1-.9-.9A.9.9,0,0,1,542.5,149.354Z" transform="translate(5.137 15.41)" fill="#bf9650"/>
    <path id="Path_9342" data-name="Path 9342" d="M548.71,149.354a.9.9,0,1,1-.9-.9A.9.9,0,0,1,548.71,149.354Z" transform="translate(6.421 15.41)" fill="#bf9650"/>
    <circle id="Ellipse_26" data-name="Ellipse 26" cx="0.896" cy="0.896" r="0.896" transform="translate(560.837 163.867)" fill="#bf9650"/>
    <path id="Path_9343" data-name="Path 9343" d="M561.139,118.281a.9.9,0,1,1-.9-.9A.9.9,0,0,1,561.139,118.281Z" transform="translate(8.989 8.989)" fill="#bf9650"/>
    <path id="Path_9344" data-name="Path 9344" d="M567.353,118.281a.9.9,0,1,1-.9-.9A.9.9,0,0,1,567.353,118.281Z" transform="translate(10.274 8.989)" fill="#bf9650"/>
    <path id="Path_9345" data-name="Path 9345" d="M573.568,118.281a.9.9,0,1,1-.9-.9A.9.9,0,0,1,573.568,118.281Z" transform="translate(11.558 8.989)" fill="#bf9650"/>
    <path id="Path_9346" data-name="Path 9346" d="M579.783,118.281a.9.9,0,1,1-.9-.9A.9.9,0,0,1,579.783,118.281Z" transform="translate(12.842 8.989)" fill="#bf9650"/>
    <path id="Path_9347" data-name="Path 9347" d="M586,118.281a.9.9,0,1,1-.9-.9A.9.9,0,0,1,586,118.281Z" transform="translate(14.126 8.989)" fill="#bf9650"/>
    <path id="Path_9348" data-name="Path 9348" d="M592.212,118.281a.9.9,0,1,1-.9-.9A.9.9,0,0,1,592.212,118.281Z" transform="translate(15.41 8.989)" fill="#bf9650"/>
    <path id="Path_9349" data-name="Path 9349" d="M561.139,124.494a.9.9,0,1,1-.9-.9A.9.9,0,0,1,561.139,124.494Z" transform="translate(8.989 10.274)" fill="#bf9650"/>
    <path id="Path_9350" data-name="Path 9350" d="M567.353,124.494a.9.9,0,1,1-.9-.9A.9.9,0,0,1,567.353,124.494Z" transform="translate(10.274 10.274)" fill="#bf9650"/>
    <path id="Path_9351" data-name="Path 9351" d="M573.568,124.494a.9.9,0,1,1-.9-.9A.9.9,0,0,1,573.568,124.494Z" transform="translate(11.558 10.274)" fill="#bf9650"/>
    <path id="Path_9352" data-name="Path 9352" d="M579.783,124.494a.9.9,0,1,1-.9-.9A.9.9,0,0,1,579.783,124.494Z" transform="translate(12.842 10.274)" fill="#bf9650"/>
    <path id="Path_9353" data-name="Path 9353" d="M586,124.494a.9.9,0,1,1-.9-.9A.9.9,0,0,1,586,124.494Z" transform="translate(14.126 10.274)" fill="#bf9650"/>
    <path id="Path_9354" data-name="Path 9354" d="M592.212,124.494a.9.9,0,1,1-.9-.9A.9.9,0,0,1,592.212,124.494Z" transform="translate(15.41 10.274)" fill="#bf9650"/>
    <path id="Path_9355" data-name="Path 9355" d="M561.139,130.71a.9.9,0,1,1-.9-.9A.9.9,0,0,1,561.139,130.71Z" transform="translate(8.989 11.558)" fill="#bf9650"/>
    <path id="Path_9356" data-name="Path 9356" d="M567.353,130.71a.9.9,0,1,1-.9-.9A.9.9,0,0,1,567.353,130.71Z" transform="translate(10.274 11.558)" fill="#bf9650"/>
    <path id="Path_9357" data-name="Path 9357" d="M573.568,130.71a.9.9,0,1,1-.9-.9A.9.9,0,0,1,573.568,130.71Z" transform="translate(11.558 11.558)" fill="#bf9650"/>
    <path id="Path_9358" data-name="Path 9358" d="M579.783,130.71a.9.9,0,1,1-.9-.9A.9.9,0,0,1,579.783,130.71Z" transform="translate(12.842 11.558)" fill="#bf9650"/>
    <path id="Path_9359" data-name="Path 9359" d="M586,130.71a.9.9,0,1,1-.9-.9A.9.9,0,0,1,586,130.71Z" transform="translate(14.126 11.558)" fill="#bf9650"/>
    <path id="Path_9360" data-name="Path 9360" d="M592.212,130.71a.9.9,0,1,1-.9-.9A.9.9,0,0,1,592.212,130.71Z" transform="translate(15.41 11.558)" fill="#bf9650"/>
    <path id="Path_9361" data-name="Path 9361" d="M561.139,136.923a.9.9,0,1,1-.9-.9A.9.9,0,0,1,561.139,136.923Z" transform="translate(8.989 12.842)" fill="#bf9650"/>
    <path id="Path_9362" data-name="Path 9362" d="M567.353,136.923a.9.9,0,1,1-.9-.9A.9.9,0,0,1,567.353,136.923Z" transform="translate(10.274 12.842)" fill="#bf9650"/>
    <path id="Path_9363" data-name="Path 9363" d="M573.568,136.923a.9.9,0,1,1-.9-.9A.9.9,0,0,1,573.568,136.923Z" transform="translate(11.558 12.842)" fill="#bf9650"/>
    <path id="Path_9364" data-name="Path 9364" d="M579.783,136.923a.9.9,0,1,1-.9-.9A.9.9,0,0,1,579.783,136.923Z" transform="translate(12.842 12.842)" fill="#bf9650"/>
    <path id="Path_9365" data-name="Path 9365" d="M586,136.923a.9.9,0,1,1-.9-.9A.9.9,0,0,1,586,136.923Z" transform="translate(14.126 12.842)" fill="#bf9650"/>
    <path id="Path_9366" data-name="Path 9366" d="M592.212,136.923a.9.9,0,1,1-.9-.9A.9.9,0,0,1,592.212,136.923Z" transform="translate(15.41 12.842)" fill="#bf9650"/>
    <path id="Path_9367" data-name="Path 9367" d="M561.139,143.139a.9.9,0,1,1-.9-.9A.9.9,0,0,1,561.139,143.139Z" transform="translate(8.989 14.126)" fill="#bf9650"/>
    <path id="Path_9368" data-name="Path 9368" d="M567.353,143.139a.9.9,0,1,1-.9-.9A.9.9,0,0,1,567.353,143.139Z" transform="translate(10.274 14.126)" fill="#bf9650"/>
    <path id="Path_9369" data-name="Path 9369" d="M573.568,143.139a.9.9,0,1,1-.9-.9A.9.9,0,0,1,573.568,143.139Z" transform="translate(11.558 14.126)" fill="#bf9650"/>
    <path id="Path_9370" data-name="Path 9370" d="M579.783,143.139a.9.9,0,1,1-.9-.9A.9.9,0,0,1,579.783,143.139Z" transform="translate(12.842 14.126)" fill="#bf9650"/>
    <path id="Path_9371" data-name="Path 9371" d="M586,143.139a.9.9,0,1,1-.9-.9A.9.9,0,0,1,586,143.139Z" transform="translate(14.126 14.126)" fill="#bf9650"/>
    <path id="Path_9372" data-name="Path 9372" d="M592.212,143.139a.9.9,0,1,1-.9-.9A.9.9,0,0,1,592.212,143.139Z" transform="translate(15.41 14.126)" fill="#bf9650"/>
    <path id="Path_9373" data-name="Path 9373" d="M561.139,149.354a.9.9,0,1,1-.9-.9A.9.9,0,0,1,561.139,149.354Z" transform="translate(8.989 15.41)" fill="#bf9650"/>
    <path id="Path_9374" data-name="Path 9374" d="M567.353,149.354a.9.9,0,1,1-.9-.9A.9.9,0,0,1,567.353,149.354Z" transform="translate(10.274 15.41)" fill="#bf9650"/>
    <path id="Path_9375" data-name="Path 9375" d="M573.568,149.354a.9.9,0,1,1-.9-.9A.9.9,0,0,1,573.568,149.354Z" transform="translate(11.558 15.41)" fill="#bf9650"/>
    <path id="Path_9376" data-name="Path 9376" d="M579.783,149.354a.9.9,0,1,1-.9-.9A.9.9,0,0,1,579.783,149.354Z" transform="translate(12.842 15.41)" fill="#bf9650"/>
    <path id="Path_9377" data-name="Path 9377" d="M586,149.354a.9.9,0,1,1-.9-.9A.9.9,0,0,1,586,149.354Z" transform="translate(14.126 15.41)" fill="#bf9650"/>
    <path id="Path_9378" data-name="Path 9378" d="M592.212,149.354a.9.9,0,1,1-.9-.9A.9.9,0,0,1,592.212,149.354Z" transform="translate(15.41 15.41)" fill="#bf9650"/>
  </g>
</svg>
