<svg xmlns="http://www.w3.org/2000/svg" width="48.059" height="59.124" viewBox="0 0 48.059 59.124">
  <g id="Group_240" data-name="Group 240" transform="translate(-226.252 -313.401)">
    <g id="Group_235" data-name="Group 235">
      <path id="Path_9210" data-name="Path 9210" d="M274.311,362.744l-2.054.476h-36.7V314.788l.476-1.387h17.927v31.415h20.349Zm-37.127-1.15h35.5V346.441H252.337V315.026H237.184Z" fill="#8d7143"/>
    </g>
    <g id="Group_236" data-name="Group 236">
      <path id="Path_9211" data-name="Path 9211" d="M226.252,372.525V323.184l9.783-9.783,1.149.763v48.58l-9.108,9.107Zm1.625-48.668v45.894l7.682-7.68v-45.9Z" fill="#8d7143"/>
    </g>
    <g id="Group_237" data-name="Group 237">
      <path id="Path_9212" data-name="Path 9212" d="M264.528,372.525H226.252l.756-1.9,9.027-9.026h37.431l.845,1.15Zm-35.5-1.625h34.829l7.681-7.68H236.708Z" fill="#8d7143"/>
    </g>
    <g id="Group_238" data-name="Group 238">
      <path id="Path_9213" data-name="Path 9213" d="M229.026,370.9h34.829l7.681-7.68H236.708Z" fill="#bf9650"/>
    </g>
    <g id="Group_239" data-name="Group 239">
      <path id="Path_9214" data-name="Path 9214" d="M227.877,323.857v45.894l7.682-7.68v-45.9Z" fill="#bf9650"/>
    </g>
  </g>
</svg>
